# xmcd
#
# Track frame offsets:
#	150
#	12962
#	26897
#	44677
#	61995
#	78415
#	92133
#	106236
#	122846
#	139076
#	151782
#
# Disc length: 2251 seconds
#
# Revision: 1
# Processed by: cddbd v1.5.2PL0 Copyright (c) Steve Scherf et al.
# Submitted via: audiograbber 1.83.01
#
DISCID=8c08c90b
DTITLE=Baylou - Go To Hell and I Love You
DYEAR=2013
DGENRE=Country
TTITLE0=Hoedown
TTITLE1=Can't Stop Loving You
TTITLE2=Novocaine
TTITLE3=Go To Hell and I Love You
TTITLE4=For You
TTITLE5=Miss Me
TTITLE6=These Lips
TTITLE7=Target On My Heart
TTITLE8=Sweet Red Wine
TTITLE9=Wreckless
TTITLE10=Waking Up The Neighbours
EXTD=
EXTT0=
EXTT1=
EXTT2=
EXTT3=
EXTT4=
EXTT5=
EXTT6=
EXTT7=
EXTT8=
EXTT9=
EXTT10=
PLAYORDER=
